<svg xmlns="http://www.w3.org/2000/svg" viewBox="0 0 42 34">
  <rect x="0" y="0" width="42" height="34" fill="#e30613" rx="3" />
  <rect x="0" y="4.5" width="5.5" height="1.2" fill="#FFFFFF" />
  <rect x="0" y="10.5" width="5.5" height="1.2" fill="#FFFFFF" />
  <rect x="0" y="16.5" width="5.5" height="1.2" fill="#FFFFFF" />
  <rect x="0" y="22.5" width="5.5" height="1.2" fill="#FFFFFF" />
  <rect x="0" y="28.5" width="5.5" height="1.2" fill="#FFFFFF" />
  <path fill="#FFFFFF" d="M33.3,17c1.6-5.8-3.1-7.6-8-7.6c-5,0-10.4,1.6-11.8,7.3c-0.5,2.6,0.2,4.8,2.4,5.9c4.7,2.3,9.8,1.6,9.1,4.9c-0.3,1.6-2.5,2.4-4,2.4c-2.4,0-3.8-1.2-3.3-3.5H11c-1.3,6.5,3.3,8.2,8.9,8.2c5.6,0,11.1-2.4,12.1-7.5c1.4-6.5-4.4-6.9-8.2-7.9c-1.7-0.5-3.7-1-3.3-2.8c0.3-1.2,1.8-2.2,3.3-2.2c1.1,0,1.9,0.3,2.4,0.8c0.5,0.5,0.6,1.2,0.4,2.1H33.3z"/>
</svg>
